<svg xmlns="http://www.w3.org/2000/svg" style="display: none;">

    <symbol id="icon-search" width="18"
      height="18"
      viewBox="0 0 18 18">
      <path
        fill-rule="evenodd"
        clip-rule="evenodd"
        d="M11.71 11H12.5L17.49 16L16 17.49L11 12.5V11.71L10.73 11.43C9.59 12.41 8.11 13 6.5 13C2.91 13 0 10.09 0 6.5C0 2.91 2.91 0 6.5 0C10.09 0 13 2.91 13 6.5C13 8.11 12.41 9.59 11.43 10.73L11.71 11ZM2 6.5C2 8.99 4.01 11 6.5 11C8.99 11 11 8.99 11 6.5C11 4.01 8.99 2 6.5 2C4.01 2 2 4.01 2 6.5Z"
      />
    </symbol>

    <symbol id="icon-cross" width="14" height="14" viewBox="0 0 14 14">
      <path d="M14 1.41L12.59 0L7 5.59L1.41 0L0 1.41L5.59 7L0 12.59L1.41 14L7 8.41L12.59 14L14 12.59L8.41 7L14 1.41Z"/>
    </symbol>

</svg>