<svg xmlns="http://www.w3.org/2000/svg" style="display: none;">

    <symbol id="icon-search" viewBox="0 0 18 18">
      <path fill-rule="evenodd" clip-rule="evenodd" d="M11.71 11H12.5L17.49 16L16 17.49L11 12.5V11.71L10.73 11.43C9.59 12.41 8.11 13 6.5 13C2.91 13 0 10.09 0 6.5C0 2.91 2.91 0 6.5 0C10.09 0 13 2.91 13 6.5C13 8.11 12.41 9.59 11.43 10.73L11.71 11ZM2 6.5C2 8.99 4.01 11 6.5 11C8.99 11 11 8.99 11 6.5C11 4.01 8.99 2 6.5 2C4.01 2 2 4.01 2 6.5Z"/>
    </symbol>

    <symbol id="icon-cross" viewBox="0 0 14 14">
      <path d="M14 1.41L12.59 0L7 5.59L1.41 0L0 1.41L5.59 7L0 12.59L1.41 14L7 8.41L12.59 14L14 12.59L8.41 7L14 1.41Z"/>
    </symbol>

    <symbol id="icon-checked" viewBox="0 0 18 14">
      <path d="M5.99991 11.1701L1.82991 7.00009L0.409912 8.41009L5.99991 14.0001L17.9999 2.00009L16.5899 0.590088L5.99991 11.1701Z" />
    </symbol>

    <symbol id="icon-spinner" viewBox="0 0 60 60">
      <path d=" M 35 3 A 27 27 0 0 1 57 35"  stroke-width="4" stroke-linecap="round"/>
    </symbol>

    <symbol id="icon-spinnerOval" viewBox="0 0 60 60">
      <circle cx="30" cy="30" r="28" stroke-width="4"/>
    </symbol>

    <symbol id="icon-star" viewBox="0 0 20 19">
      <path fill-rule="evenodd" clip-rule="evenodd" d="M12.81 6.62L20 7.24L14.55 11.97L16.18 19L10 15.27L3.82 19L5.46 11.97L0 7.24L7.19 6.63L10 0L12.81 6.62ZM6.24 15.67L10 13.4L13.77 15.68L12.77 11.4L16.09 8.52L11.71 8.14L10 4.1L8.3 8.13L3.92 8.51L7.24 11.39L6.24 15.67Z"/>
    </symbol>

    <symbol id="icon-starFilled" viewBox="0 0 20 19">
      <path d="M10 15.27L16.18 19L14.54 11.97L20 7.24L12.81 6.63L10 0L7.19 6.63L0 7.24L5.46 11.97L3.82 19L10 15.27Z"/>
    </symbol>

    <symbol id="icon-taskPlain" viewBox="0 0 38 48">
      <path fill-rule="evenodd" clip-rule="evenodd" d="M18.7448 0.525729C14.5074 0.650657 11.0485 3.87686 10.558 8.02097L4 8.02197C1.79086 8.02197 0 9.81283 0 12.022V43.522C0 45.7311 1.79086 47.522 4 47.522H34C36.2091 47.522 38 45.7311 38 43.522V12.022L37.9951 11.8223C37.8911 9.70594 36.1422 8.02197 34 8.02197L27.441 8.02097C26.9418 3.79414 23.353 0.521973 19 0.521973L18.7448 0.525729ZM19 2.52197C22.5899 2.52197 25.5 5.43212 25.5 9.02197C25.5 9.57426 25.9477 10.022 26.5 10.022H34C35.1046 10.022 36 10.9174 36 12.022V43.522C36 44.6265 35.1046 45.522 34 45.522H4C2.89543 45.522 2 44.6265 2 43.522V12.022C2 10.9174 2.89543 10.022 4 10.022H11.5C12.0523 10.022 12.5 9.57426 12.5 9.02197C12.5 5.43212 15.4101 2.52197 19 2.52197ZM19.1435 6.52777L19 6.52197L18.8565 6.52777C17.9571 6.60078 17.25 7.3538 17.25 8.27197C17.25 9.23847 18.0335 10.022 19 10.022C19.9665 10.022 20.75 9.23847 20.75 8.27197C20.75 7.3538 20.0429 6.60078 19.1435 6.52777Z"/>
    </symbol>
</svg>